<svg xmlns="http://www.w3.org/2000/svg" viewBox="0 0 550 122" role="img" aria-label="Hunch"><g fill="#252522"><path d="M16 8H44V23H25V73H40V88H16C12 88 9 85 9 81V15C9 11 12 8 16 8Z M80 8H57V24H72V73H55V88H80C84 88 87 85 87 81V15C87 11 84 8 80 8Z" transform="translate(10 8.6) scale(1.05)" fill="#7D969B" /><g transform="translate(137 8)" stroke="#252522" stroke-width="1.2" stroke-linejoin="round"><g>
<path d="M.4 .5Q6 .2 13 .4L12.6 99.6Q6 100.1 .2 99.9Z M48.8 .4L51.5 .6 51.3 100 48.5 100Z M12.2 49.1Q29 49.5 49.8 49.3L49.8 52Q30 51.9 12.2 52Z" />
<path transform="translate(81 0)" d="M.3 .5L13.5 .2 13.2 72.5C13.5 89 19 99.5 31 99.4C44 98.4 50.8 84.3 50.8 73V.3L53.6 .4V73C53.6 87.5 46 101.6 30 102C9 102.8 0 90.4 .2 73Z" />
<path transform="translate(167 0)" d="M.3 .4H3V100H.2Z M.5 .4L12 .3 53 100 41.5 100Z M51.3 .3H54L53.8 100H51Z" />
<path transform="translate(252 0)" d="M54.5 1.5C42 -3 29 1 19 9C6 20 .1 34 .3 52C.7 77 11 95 29.8 100C38 102 46.4 101 55 97.6L54.3 94.5C46.5 97.9 39.3 98.9 32.8 96C19 89.6 13 72 13.2 52C13 30 19 13.5 32 6C39 2.3 46 2.2 53.8 4.8Z" />
<path transform="translate(337 0)" d="M.2 .5L13.3 .7 13.1 100 .1 99.8Z M52.3 .7L55 .4 54.8 99.8 52 100Z M12.7 49.7Q33 49.2 53.8 49.8V52.4Q31 52.1 12.7 52.2Z" />
</g></g></g></svg>